<svg width="512" height="512" viewBox="0 0 64 64" fill="none" xmlns="http://www.w3.org/2000/svg">
  <rect width="64" height="64" rx="16" fill="#F7F9FC"/>
  <defs>
    <linearGradient id="haqly-app-icon-gradient" x1="10" y1="54" x2="55" y2="10" gradientUnits="userSpaceOnUse">
      <stop offset="0" stop-color="#132B7A" />
      <stop offset="0.52" stop-color="#16708A" />
      <stop offset="1" stop-color="#2BC85A" />
    </linearGradient>
    <clipPath id="haqly-app-icon-clip">
      <path d="M16 10H28V31H38V24H48V10L60 22H52V54H40V34H28V54H16V10Z" />
    </clipPath>
  </defs>
  <path d="M16 10H28V31H38V24H48V10L60 22H52V54H40V34H28V54H16V10Z" fill="url(#haqly-app-icon-gradient)"/>
  <g clip-path="url(#haqly-app-icon-clip)">
    <path d="M6 56C13 42 24 34 40 34C49 34 57 36 63 39V64H6V56Z" fill="rgba(9, 28, 96, 0.24)"/>
  </g>
</svg>
